<svg id="noun-download-7612749" xmlns="http://www.w3.org/2000/svg" width="15.667" height="15.27" viewBox="0 0 15.667 15.27">
  <path id="Path_27475" data-name="Path 27475" d="M15.5,58.992a2.471,2.471,0,0,0,2.475,2.475H28.692a2.471,2.471,0,0,0,2.475-2.475v-2.5a.994.994,0,1,0-1.989,0v2.5a.49.49,0,0,1-.486.486H17.974a.49.49,0,0,1-.486-.486v-2.5a.994.994,0,1,0-1.989,0Z" transform="translate(-15.5 -46.196)" fill="#fff"/>
  <path id="Path_27476" data-name="Path 27476" d="M32.044,13.4a.99.99,0,0,0-.994.994v7.094L28.662,19.1a1,1,0,0,0-1.414,1.414l3.757,3.757a1.381,1.381,0,0,0,1.038.42,1.51,1.51,0,0,0,1.038-.42l3.757-3.757A1,1,0,0,0,35.425,19.1l-2.387,2.387V14.392a.99.99,0,0,0-.994-.994Z" transform="translate(-24.42 -13.398)" fill="#fff"/>
</svg>
