<svg xmlns="http://www.w3.org/2000/svg" xmlns:xlink="http://www.w3.org/1999/xlink" width="32" height="32" viewBox="0 0 32 32"><defs><clipPath id="b"><rect width="32" height="32"/></clipPath></defs><g id="a" clip-path="url(#b)"><path d="M37.345,26.321a10.475,10.475,0,0,0-7.855,10.142v6.981a1.165,1.165,0,0,1-1.162,1.165A2.33,2.33,0,0,0,26,46.936v1.747a.58.58,0,0,0,.583.58H53.344a.584.584,0,0,0,.583-.58V46.936A2.331,2.331,0,0,0,51.6,44.609a1.161,1.161,0,0,1-1.162-1.165V36.463a10.476,10.476,0,0,0-7.855-10.142v-1.2a2.618,2.618,0,1,0-5.236,0ZM35.891,50.427h8.145a4.073,4.073,0,1,1-8.145,0Z" transform="translate(-24 -22.5)" fill="#fff" fill-rule="evenodd"/></g></svg>