<svg xmlns="http://www.w3.org/2000/svg" width="848.281" height="1024" viewBox="0 0 848.281 1024"><path d="M-4906.548-1098.751s72.824-236.511,115.88-333.565,108.485-123.7,162.946-122.745,134.47,8.261,186.259,146.533,189.5,572.858,206.08,648.469,4.143,142.934-39.355,187.472-140.089,58.348-209.484,15.881c-44.105-21.147-114.644-69.331-205.42-130.505-42.144-27.189-115.242-90.927-156.186-88.563-33.331.952-39.581,39.34-52.361,72.552-18.335,47.647-32.767,101.731-37.108,115.846-25.379,49.845-50.431,60.9-97.054,49.479-22.146-5.424-40.873-36.04-43.771-61.848-3-26.677,8.563-60.821,16.176-87.466,7.479-26.188,32.4-101.281,67.558-152.314,32.145-46.659,73.068-70.073,124.647-74.218,106.569-8.563,171.447,60.985,406.177,210.521,0,0,49.168,29.115,71.6,27.189s18.125-34.893,18.125-34.893l-216.727-671.624s-7.493-18.418-30.814-18.126-28.094,18.126-28.094,18.126L-4760.219-1073.6s-23.077,71.3-85.609,59.519S-4906.548-1098.751-4906.548-1098.751Z" transform="translate(5076.608 1555.085)" fill="#ff5400"/></svg>